# xmcd
#
# Track frame offsets:
# 150
# 24408
# 43714
# 61969
# 77108
# 98107
# 119636
# 138165
# 154122
# 171214
# 186728
# 205265
# 236411
# 253578
# 272332
# 284460
# 306869
# 323132
#
# Disc length: 4576 seconds
#
# Revision: 0
# Processed by: cddbd v1.5.2PL0 Copyright (c) Steve Scherf et al.
# Submitted via: Audion 3.0.2 (http://www.panic.com/audion/)
#
DISCID=0111de12
DTITLE=Mango Groove - Moments Away
DYEAR=1900
DGENRE=
TTITLE0=Moments Away
TTITLE1=Another Country
TTITLE2=Africa Blue
TTITLE3=Love is
TTITLE4=We are Waiting
TTITLE5=Lalissa
TTITLE6=Southern Sky
TTITLE7=2 Hearts
TTITLE8=Sometimes
TTITLE9=Taken for a Moment
TTITLE10=Harder
TTITLE11=Ulale Kanjani?
TTITLE12=Too many tears
TTITLE13=Gone Too Soon
TTITLE14=Dream Softly
TTITLE15=Only Love
TTITLE16=Place in the Sun
TTITLE17=New World
EXTD=
EXTT0=
EXTT1=
EXTT2=
EXTT3=
EXTT4=
EXTT5=
EXTT6=
EXTT7=
EXTT8=
EXTT9=
EXTT10=
EXTT11=
EXTT12=
EXTT13=
EXTT14=
EXTT15=
EXTT16=
EXTT17=
PLAYORDER=
